<svg xmlns="http://www.w3.org/2000/svg" viewBox="0 0 344.43 105.57"><defs><style>.cls-1,.cls-2,.cls-4{fill:#231f20;}.cls-1,.cls-2{stroke:#fff;}.cls-1,.cls-2,.cls-3{stroke-miterlimit:10;}.cls-1{stroke-width:0.25px;}.cls-3{fill:#fff;stroke:#231f20;stroke-width:17px;}.cls-5{fill:#e4e1ca;}</style></defs><g id="Text"><path class="cls-1" d="M122.52,40.88c.14.17.28.36.42.55a6.75,6.75,0,0,0-2.28.27A2.31,2.31,0,0,0,119.41,43a29.7,29.7,0,0,0-.94,4c-2.32,10-9.22,29.07-12.59,33h-1.13c-3.39-3.12-8.64-15.84-11.53-25.77C89,64.52,86.51,75.79,87.39,80h-1c-9-6.62-12.46-23.22-13-32.39a29.62,29.62,0,0,0-.52-3.84,2.2,2.2,0,0,0-1.1-1.38A4.78,4.78,0,0,0,69.34,42c0-.35,0-.69,0-1l14.05,0c-.16.22-.31.44-.46.68h-.67a5.79,5.79,0,0,0-2.52.56,2.84,2.84,0,0,0-1.35,1.35,11.39,11.39,0,0,0-.22,4.06,62.3,62.3,0,0,0,7,24.42,80.53,80.53,0,0,1,6.88-21.9c-.29-1.19-.53-2.32-.72-3.35-.16-.83-.28-1.6-.37-2.31a6.94,6.94,0,0,0-.64-1.85,1.55,1.55,0,0,0-.61-.58,3.87,3.87,0,0,0-1.15-.42,8.59,8.59,0,0,0-1.63-.07,7.41,7.41,0,0,1,.45-.61h14.88c0,.13-.09.28-.14.45h-1a6.62,6.62,0,0,0-2.53.37,1.8,1.8,0,0,0-1.16,1.17c-.2.67-.08,1.92.63,4.33,2,6.95,5.85,17.84,8.84,25.31,3-7.58,6.8-18.65,8.72-25.59.66-2.31.76-3.49.57-4.12a1.53,1.53,0,0,0-.71-.8,3.67,3.67,0,0,0-1.25-.46,18.38,18.38,0,0,0-3-.22,3.45,3.45,0,0,0-.14-.45Z" transform="translate(-15.92 -5.09)"/><path class="cls-1" d="M136.3,76.19a23.54,23.54,0,0,1-6.07,3.1,13.41,13.41,0,0,1-3.54.49c-1.79,0-3-.28-3.72-1s-.87-1.91-.39-3.78a9.09,9.09,0,0,1,1.65-3.36,20.38,20.38,0,0,1,5-4.29c2.15-1.4,5.71-3.19,9.25-5.12,0-.38,0-.76,0-1.15,0-2.91-.44-4.91-1.21-6a4.18,4.18,0,0,0-3.36-1.82,3.07,3.07,0,0,0-2.65,1,3.37,3.37,0,0,0-.9,2.57c.06.66.11,1.33.14,2a3.59,3.59,0,0,1-.68,2.46,2.38,2.38,0,0,1-1.91.88,2.33,2.33,0,0,1-1.91-.9,4,4,0,0,1-.78-2.52,7,7,0,0,1,2.46-5.39c1.63-1.52,4-2.12,6.75-1.91A8.74,8.74,0,0,1,139.37,53a5.89,5.89,0,0,1,1.9,3.09,21.46,21.46,0,0,1,.41,5.32,91.79,91.79,0,0,1-.57,9.2c-.3,2.5-.53,3.93-.55,4.46a1.47,1.47,0,0,0,.19,1,.63.63,0,0,0,.57.2,1.35,1.35,0,0,0,.67-.26,9.43,9.43,0,0,0,1.79-2.27c0,.53,0,1,0,1.57-1.57,3.06-4,4.28-5.9,4.3a2,2,0,0,1-1.82-.73C135.74,78.43,135.86,77.58,136.3,76.19Zm.51-1.69a51.22,51.22,0,0,0,1.59-10.36c-2.31,1.38-4.22,2.41-5.06,3a16,16,0,0,0-3.63,3.1A8.41,8.41,0,0,0,128,73.42a3.5,3.5,0,0,0,.26,3,2.49,2.49,0,0,0,2.32,1A12.39,12.39,0,0,0,136.81,74.5Z" transform="translate(-15.92 -5.09)"/><path class="cls-1" d="M266.68,37.75c-.59,1.83-1,6.48-1.18,12.07l-1.38,0A16.81,16.81,0,0,0,262.39,43a6.8,6.8,0,0,0-3.66-2.95,12.4,12.4,0,0,0-5.05-.73,8.94,8.94,0,0,0-5.42,1.93,6.57,6.57,0,0,0-2.46,4.33,5.07,5.07,0,0,0,.59,3.25c.83,1.42,2.8,3.2,7.72,6.09a90,90,0,0,1,9.17,5.84,15.75,15.75,0,0,1,4.15,4.93A12,12,0,0,1,269,71.19a7.51,7.51,0,0,1-3.61,7.08c-2.3,1.37-5,1.72-8.7,1.76a28.67,28.67,0,0,1-3.39-.18,27.72,27.72,0,0,1-4.09-.87,37.47,37.47,0,0,0-3.65-1,1.13,1.13,0,0,0-1,.32,3.1,3.1,0,0,0-.43,1.69H243c-.13-4.5-.22-9.11-.27-13.75l.55.15a19.78,19.78,0,0,0,1.81,6.88,9.27,9.27,0,0,0,4.08,3.82,14.88,14.88,0,0,0,6.17,1.51c2.51.1,4.35-.22,5.65-1.12a4,4,0,0,0,1.73-4,7.72,7.72,0,0,0-1.28-3.25,14,14,0,0,0-3.27-3.41c-.92-.74-3.62-2.41-7.17-4.85a27.66,27.66,0,0,1-6.14-5.34A10,10,0,0,1,243,52.86a17.73,17.73,0,0,1-.51-4.45c0-2.87.6-5.66,2.88-7.82s5.53-2.82,8.94-2.82a27.5,27.5,0,0,1,6.42.79,10.07,10.07,0,0,0,2.3.39,3.66,3.66,0,0,0,1.4-.3,3.53,3.53,0,0,0,1.11-.9Z" transform="translate(-15.92 -5.09)"/><path class="cls-1" d="M291.36,76.32a24,24,0,0,1-6.28,3.1,14.9,14.9,0,0,1-3.66.45,7.91,7.91,0,0,1-4.42-1c-1.11-.74-1.66-1.9-1.52-3.84a6.82,6.82,0,0,1,1.31-3.51A18.66,18.66,0,0,1,282.23,67c2.45-1.5,6.72-3.47,11.06-5.63,0-.42,0-.84,0-1.26,0-3.19-.46-5.39-1.35-6.62a5,5,0,0,0-4-2,4.18,4.18,0,0,0-3.27,1.07,3.66,3.66,0,0,0-1.23,2.85c0,.73.08,1.46.11,2.2a3.87,3.87,0,0,1-.84,2.7,3,3,0,0,1-2.27,1,2.85,2.85,0,0,1-2.27-1,4.08,4.08,0,0,1-.9-2.75,7.57,7.57,0,0,1,3.17-5.94c2.06-1.7,4.93-2.39,8.27-2.15a10.59,10.59,0,0,1,5.8,1.89,6.43,6.43,0,0,1,2.19,3.39,23.21,23.21,0,0,1,.43,5.76c-.05,3.38-.24,6.73-.58,9.88-.29,2.65-.51,4.14-.52,4.68s.07.88.24,1a.72.72,0,0,0,.63.19,1.54,1.54,0,0,0,.72-.3,9.94,9.94,0,0,0,1.92-2.49c0,.56,0,1.11,0,1.66-1.68,3.34-4.29,4.55-6.26,4.57a2.39,2.39,0,0,1-2-.69C290.94,78.54,291,77.72,291.36,76.32Zm.44-1.74a66.85,66.85,0,0,0,1.41-11.09c-2.81,1.55-5.09,2.68-6.08,3.31A16.29,16.29,0,0,0,283,70.16a6.87,6.87,0,0,0-1.56,3.37,3.44,3.44,0,0,0,.84,3.16,3.56,3.56,0,0,0,2.82.93C286.66,77.52,289,76.71,291.8,74.58Z" transform="translate(-15.92 -5.09)"/><path class="cls-1" d="M167.65,61.21c1.28-1.54,2.49-2.31,3.65-2.31a2.62,2.62,0,0,1,1.54.45,3,3,0,0,1,1,1.47,6.89,6.89,0,0,1,.26,2.19v4.65a3.91,3.91,0,0,0,.17,1.4.94.94,0,0,0,.42.46,2.38,2.38,0,0,0,1.08.17v.43H170.4v-.43h.22a1.86,1.86,0,0,0,1.07-.23,1.27,1.27,0,0,0,.42-.69,7,7,0,0,0,0-1.11V63.2a4.51,4.51,0,0,0-.39-2.16,1.37,1.37,0,0,0-1.3-.67,3.93,3.93,0,0,0-2.82,1.54v5.75a4.28,4.28,0,0,0,.13,1.36,1.15,1.15,0,0,0,.46.51,2.8,2.8,0,0,0,1.18.16v.43H164v-.43h.24a1.29,1.29,0,0,0,1.12-.42,3.12,3.12,0,0,0,.29-1.61v-4a17.55,17.55,0,0,0-.09-2.39,1,1,0,0,0-.27-.58.78.78,0,0,0-.5-.15,2.45,2.45,0,0,0-.79.17l-.18-.42,3.28-1.34h.51Z" transform="translate(-15.92 -5.09)"/><path class="cls-1" d="M179.82,55.65v3.58h2.54v.83h-2.54v7.06a2.4,2.4,0,0,0,.3,1.43,1,1,0,0,0,.78.37,1.4,1.4,0,0,0,.76-.25,1.55,1.55,0,0,0,.57-.72h.46a3.76,3.76,0,0,1-1.17,1.76,2.56,2.56,0,0,1-1.57.59,2.1,2.1,0,0,1-1.07-.31,1.84,1.84,0,0,1-.78-.87,4.63,4.63,0,0,1-.25-1.74V60.06h-1.72v-.39a4.58,4.58,0,0,0,1.34-.89,7.47,7.47,0,0,0,1.22-1.48,14.41,14.41,0,0,0,.76-1.65Z" transform="translate(-15.92 -5.09)"/><path class="cls-1" d="M188.75,58.9a4.85,4.85,0,0,1,4,1.88A5.82,5.82,0,0,1,194,64.47a7.07,7.07,0,0,1-.7,3,5,5,0,0,1-4.68,3,4.61,4.61,0,0,1-3.91-2,6.11,6.11,0,0,1-1.22-3.71,6.66,6.66,0,0,1,.74-3,5.08,5.08,0,0,1,2-2.19A5,5,0,0,1,188.75,58.9Zm-.37.78a2.47,2.47,0,0,0-1.27.37,2.64,2.64,0,0,0-1,1.32,6.32,6.32,0,0,0-.39,2.41,8.39,8.39,0,0,0,.94,4.1,2.82,2.82,0,0,0,2.5,1.73,2.32,2.32,0,0,0,1.9-1,5.39,5.39,0,0,0,.75-3.27,7.46,7.46,0,0,0-1.25-4.56A2.57,2.57,0,0,0,188.38,59.68Z" transform="translate(-15.92 -5.09)"/><path class="cls-1" d="M318.41,59.23h5.13v.44h-.33a1,1,0,0,0-.71.22.76.76,0,0,0-.25.61,2.7,2.7,0,0,0,.25,1l2.54,6,2.54-6.24a3,3,0,0,0,.27-1,.4.4,0,0,0-.09-.27.73.73,0,0,0-.33-.25,3.57,3.57,0,0,0-.82-.06v-.44h3.55v.44a1.51,1.51,0,0,0-.86.25,3,3,0,0,0-.74,1.18l-3.87,9.35h-.49l-3.88-9.19a3.84,3.84,0,0,0-.5-.92,2,2,0,0,0-.61-.47,2.86,2.86,0,0,0-.8-.2Z" transform="translate(-15.92 -5.09)"/><path class="cls-1" d="M337.32,68.55a19,19,0,0,1-2.11,1.5,3.29,3.29,0,0,1-1.36.29,2.41,2.41,0,0,1-1.86-.77,2.83,2.83,0,0,1-.74-2,2.58,2.58,0,0,1,.36-1.38,4.68,4.68,0,0,1,1.7-1.52,25.45,25.45,0,0,1,4-1.74v-.43a3.5,3.5,0,0,0-.52-2.23,1.85,1.85,0,0,0-1.5-.61,1.73,1.73,0,0,0-1.19.4,1.22,1.22,0,0,0-.45.93l0,.69a1.18,1.18,0,0,1-.28.85,1,1,0,0,1-.73.29.92.92,0,0,1-.72-.31,1.17,1.17,0,0,1-.28-.84,2.43,2.43,0,0,1,1.05-1.88,4.49,4.49,0,0,1,2.93-.85,5.17,5.17,0,0,1,2.38.48,2.28,2.28,0,0,1,1,1.16,6.57,6.57,0,0,1,.21,2.09v3.7a16.65,16.65,0,0,0,.06,1.9.71.71,0,0,0,.2.47.45.45,0,0,0,.31.12.58.58,0,0,0,.33-.08,6.89,6.89,0,0,0,1-.87v.67c-.89,1.19-1.74,1.78-2.55,1.78a1.16,1.16,0,0,1-.93-.4A2.27,2.27,0,0,1,337.32,68.55Zm0-.77V63.63a21.68,21.68,0,0,0-2.32,1,4,4,0,0,0-1.34,1.09,2.12,2.12,0,0,0-.41,1.25,2,2,0,0,0,.51,1.42,1.54,1.54,0,0,0,1.18.56A4.31,4.31,0,0,0,337.32,67.78Z" transform="translate(-15.92 -5.09)"/><path class="cls-1" d="M345.13,61.21c1.28-1.54,2.49-2.3,3.65-2.3a2.58,2.58,0,0,1,1.53.44,3,3,0,0,1,1,1.47A6.93,6.93,0,0,1,351.6,63v4.65a4,4,0,0,0,.16,1.4,1,1,0,0,0,.43.46,2.36,2.36,0,0,0,1.07.17v.43h-5.38v-.43h.22a1.88,1.88,0,0,0,1.07-.23,1.23,1.23,0,0,0,.42-.69,7,7,0,0,0,.05-1.11V63.2a4.51,4.51,0,0,0-.39-2.16,1.37,1.37,0,0,0-1.3-.67,3.91,3.91,0,0,0-2.82,1.54v5.75a4,4,0,0,0,.13,1.36,1.09,1.09,0,0,0,.46.51,2.77,2.77,0,0,0,1.18.16v.43h-5.38v-.43h.23a1.3,1.3,0,0,0,1.13-.42,3.12,3.12,0,0,0,.29-1.61v-4a17.55,17.55,0,0,0-.09-2.39,1,1,0,0,0-.27-.58.78.78,0,0,0-.5-.15,2.4,2.4,0,0,0-.79.17l-.18-.42,3.28-1.33h.51Z" transform="translate(-15.92 -5.09)"/><path class="cls-1" d="M357.29,55.65v3.58h2.55v.83h-2.55v7.06a2.32,2.32,0,0,0,.31,1.43,1,1,0,0,0,.77.37,1.41,1.41,0,0,0,.77-.25,1.61,1.61,0,0,0,.57-.72h.46A3.78,3.78,0,0,1,359,69.71a2.54,2.54,0,0,1-1.57.59,2.16,2.16,0,0,1-1.07-.31,1.87,1.87,0,0,1-.77-.87,4.44,4.44,0,0,1-.25-1.74V60.06h-1.72v-.39a4.55,4.55,0,0,0,1.33-.89,6.83,6.83,0,0,0,1.22-1.48,11.56,11.56,0,0,0,.76-1.65Z" transform="translate(-15.92 -5.09)"/></g><g id="Frame"><path class="cls-2" d="M134.79,5.61H71.48c-.71,0-1.41,0-2.11,0V5.6c-22.92.45-41.77,3.92-50.15,5.28a3.34,3.34,0,0,0-2.76,3.81l3.07,19.73s14.87-3.34,19.25-.71c0,.58,0,1.17.1,1.79l3.8,35.12c1.65,16,4.78,28,14.67,34.49,6.48,4.25,14.26,5,24.23,5,2.81,0,5.79-.06,9-.13,3.76-.08,8-.17,12.59-.17,13.75,0,29.19,0,38.19-.45a18.22,18.22,0,0,0,17-14.6c.88-4.31,1.68-9.84,2.47-15.19.69-4.73,1.34-9.21,2-12.27A271.88,271.88,0,0,0,167.45,35a16.56,16.56,0,0,0,.05-1.7C167.21,16.74,154.06,5.61,134.79,5.61Zm9.56,58.05c-.71,3.55-1.39,8.26-2.12,13.24s-1.46,10-2.2,13.73c-8.27.36-22.61.41-36.89.41-4.77,0-9.14.1-13,.18-10.65.23-19.06.41-22.48-1.84-3-2-5-8.73-6.28-20.74l-3.8-35.19c.27-7.85,8.81-9,13.89-9h63.31c5.13,0,13.76,1.2,13.9,9.26A254.72,254.72,0,0,1,144.35,63.66Z" transform="translate(-15.92 -5.09)"/><path class="cls-2" d="M342.23,10.93C333.84,9.56,315,6.1,292.08,5.64a.13.13,0,0,1,0,.06c-.95-.06-1.91-.09-2.9-.09h-63.3c-19.27,0-32.42,11.13-32.72,27.7,0,.56,0,1.12,0,1.69a272.86,272.86,0,0,0,4.65,32.35c.61,3.06,1.27,7.54,2,12.27.78,5.35,1.59,10.88,2.46,15.19a18.22,18.22,0,0,0,17,14.6c9,.42,24.44.45,38.2.45,4.57,0,8.83.09,12.58.17,3.18.07,6.16.13,9,.13,10,0,17.75-.8,24.23-5,9.88-6.49,13-18.48,14.66-34.45l3.8-35.16c0-.36.06-.7.08-1,2.84-3.86,20.06,0,20.06,0L345,14.74A3.34,3.34,0,0,0,342.23,10.93ZM303.07,33.48l-3.81,35.2C298,80.65,296,87.42,293,89.38c-3.42,2.25-11.83,2.07-22.48,1.84-3.85-.08-8.21-.18-13-.18-14.29,0-28.63-.05-36.9-.41-.74-3.77-1.48-8.83-2.19-13.73S217,67.21,216.3,63.66a252.18,252.18,0,0,1-4.33-30c.14-8,8.77-9.23,13.9-9.23h63.3c5.1,0,13.69,1.19,13.9,9.12Z" transform="translate(-15.92 -5.09)"/><path class="cls-3" d="M305.05,105.26" transform="translate(-15.92 -5.09)"/></g><g id="Tape"><polygon class="cls-4" points="177.1 34.85 147.47 35.44 147.47 14.23 180.5 15.12 177.1 34.85"/><polygon class="cls-5" points="153.27 35.83 150.94 35.8 150.85 13.57 153.87 13.65 153.27 35.83"/><rect class="cls-5" x="153.67" y="14.24" width="3.01" height="22.33"/><polygon class="cls-5" points="159.68 36.5 156.66 36.48 156.46 14.3 159.47 14.32 159.68 36.5"/><rect class="cls-5" x="160.09" y="14.25" width="4.23" height="21.55"/><polygon class="cls-5" points="166.95 35.78 163.94 35.81 164.21 14.26 167.22 14.23 166.95 35.78"/><polygon class="cls-5" points="170.69 35.5 167.09 35.33 168.15 13.4 171.46 13.84 170.69 35.5"/><rect class="cls-5" x="171.01" y="14.6" width="3.01" height="20.81"/><polygon class="cls-5" points="178.01 35.84 174.4 35.92 173.56 14.96 177.17 14.88 178.01 35.84"/><polygon class="cls-5" points="178.26 34.25 176.56 34.48 177.72 14.83 180.72 15.07 178.26 34.25"/><polygon class="cls-5" points="152.33 35.38 150.71 38.19 147.47 13.84 150.05 14.3 152.33 35.38"/><polygon class="cls-5" points="175.63 33.56 178.01 36.28 182.07 13.12 179.39 14.83 175.63 33.56"/></g></svg>